<svg width="720" height="700" viewBox="0 0 720 700" fill="none" xmlns="http://www.w3.org/2000/svg">
	<path
		d="M600.839 699.595H118.723C53.3172 699.595 0 646.303 0 580.929V118.665C0 53.2911 53.3172 0 118.723 0H600.525C666.277 0 719.249 53.2911 719.249 118.665V580.615C719.563 646.303 666.245 699.595 600.839 699.595Z"
		fill="#2E001F"
	/>
	<path
		d="M277.67 325.27L369.264 501.149C370.897 503.754 369.923 506.391 367.286 506.391H310.358C306.747 506.391 305.114 505.418 303.481 502.154C282.537 459 261.279 415.846 239.362 369.428H238.703C219.078 413.241 197.475 459.345 176.562 502.499C174.929 505.104 173.297 506.108 170.659 506.108H116.745C113.48 506.108 113.134 503.503 114.798 501.526L204.414 330.857L117.75 158.241C115.772 155.636 117.75 153.659 119.697 153.659H175.966C179.231 153.659 180.55 154.318 181.837 157.268C202.436 200.422 223.38 244.894 243.005 288.362H243.664C262.63 245.208 283.573 200.422 303.858 157.582C305.491 154.977 306.464 153.345 309.761 153.345H362.419C365.025 153.345 366.03 155.322 364.397 157.927L277.67 325.27ZM385.309 378.561C385.309 302.391 436.02 242.886 516.467 242.886C523.344 242.886 526.923 242.886 533.486 243.545V156.923C533.486 154.946 535.119 153.659 536.752 153.659H588.436C591.042 153.659 591.702 154.632 591.702 156.264V456.395C591.702 465.214 591.702 476.324 593.334 488.439C593.334 490.416 592.675 491.044 590.728 492.048C563.253 505.135 534.459 511.004 506.984 511.004C435.989 511.287 385.278 467.505 385.309 378.561ZM533.455 294.89C528.87 292.913 522.339 291.626 514.489 291.626C473.261 291.626 444.498 323.324 444.498 375.988C444.498 436.152 473.952 460.349 510.909 460.349C518.759 460.349 527.269 459.377 533.486 456.74V294.89H533.455Z"
		fill="#FF61F6"
	/>
</svg>
