<svg width="118" height="89" viewBox="0 0 118 89" fill="none" xmlns="http://www.w3.org/2000/svg">
<rect x="1.5" y="1.5" width="116" height="87" rx="7.5" fill="white" stroke="#470589"/>
<path fill-rule="evenodd" clip-rule="evenodd" d="M117.945 6.85782C117.945 5.30423 117.326 3.81426 116.229 2.71569C115.13 1.61712 113.64 1 112.087 1H6.85783C5.30422 1 3.81425 1.61712 2.71571 2.71569C1.61716 3.81426 1 5.30423 1 6.85782V81.1423C1 82.6961 1.61716 84.1862 2.71571 85.2847C3.81425 86.3832 5.30422 87 6.85783 87H112.087C113.64 87 115.13 86.3832 116.229 85.2847C117.326 84.1862 117.945 82.6961 117.945 81.1423V6.85782Z" stroke="#470589" stroke-width="0.012213" stroke-miterlimit="1.5" stroke-linecap="round" stroke-linejoin="round"/>
<path d="M117.535 13.5994H1.23828V14.6699H117.535V13.5994Z" fill="#470589"/>
<path fill-rule="evenodd" clip-rule="evenodd" d="M108.695 25.3801C108.695 25.0197 108.404 24.7275 108.042 24.7275C103.434 24.7275 75.839 24.7275 71.2213 24.7275C70.8594 24.7275 70.5662 25.0208 70.5662 25.3826C70.5662 25.7445 70.8594 26.0378 71.2213 26.0378C75.8375 26.0378 103.415 26.0378 108.038 26.0378C108.401 26.0378 108.695 25.7434 108.695 25.3803V25.3801Z" fill="#470589"/>
<path fill-rule="evenodd" clip-rule="evenodd" d="M108.685 30.177C108.685 29.8166 108.485 29.5245 108.238 29.5245C104.893 29.5245 83.7994 29.5245 80.4485 29.5245C80.2008 29.5245 80 29.8178 80 30.1796C80 30.5414 80.2008 30.8347 80.4485 30.8347C83.7983 30.8347 104.878 30.8347 108.234 30.8347C108.354 30.8347 108.469 30.7655 108.552 30.6422C108.637 30.5188 108.685 30.3516 108.685 30.1772C108.685 30.1771 108.685 30.1771 108.685 30.177Z" fill="#470589"/>
<path fill-rule="evenodd" clip-rule="evenodd" d="M108.683 34.9702C108.683 34.6098 108.391 34.3176 108.03 34.3176H100.003C99.6409 34.3176 99.3477 34.6108 99.3477 34.9726C99.3477 34.9727 99.3477 34.9728 99.3477 34.9729C99.3477 35.3346 99.6409 35.6279 100.003 35.6279C101.715 35.6279 106.31 35.6279 108.025 35.6279C108.388 35.6279 108.683 35.3335 108.683 34.9703C108.683 34.9703 108.683 34.9702 108.683 34.9702Z" fill="#470589"/>
<path fill-rule="evenodd" clip-rule="evenodd" d="M108.692 39.7671C108.692 39.4067 108.4 39.1146 108.039 39.1146C104.782 39.1146 90.3056 39.1146 87.0421 39.1146C86.8683 39.1146 86.7017 39.1836 86.5788 39.3064C86.4559 39.4293 86.387 39.5959 86.387 39.7697C86.387 39.9435 86.4559 40.1101 86.5788 40.2329C86.7017 40.3558 86.8683 40.4248 87.0421 40.4248C90.3039 40.4248 104.767 40.4248 108.034 40.4248C108.397 40.4248 108.692 40.1305 108.692 39.7673C108.692 39.7672 108.692 39.7672 108.692 39.7671Z" fill="#470589"/>
<path fill-rule="evenodd" clip-rule="evenodd" d="M108.695 44.564C108.695 44.3909 108.626 44.2249 108.504 44.1026C108.382 43.9801 108.216 43.9114 108.042 43.9114C104.259 43.9114 85.1716 43.9114 81.3811 43.9114C81.2074 43.9114 81.0408 43.9805 80.9179 44.1033C80.795 44.2262 80.7261 44.3928 80.7261 44.5665C80.7261 44.9284 81.0193 45.2217 81.3811 45.2217H108.038C108.401 45.2217 108.695 44.9273 108.695 44.5642C108.695 44.5641 108.695 44.564 108.695 44.564Z" fill="#470589"/>
<path fill-rule="evenodd" clip-rule="evenodd" d="M108.676 49.3609C108.676 49.0005 108.384 48.7084 108.023 48.7084C105.055 48.7084 92.846 48.7084 89.8724 48.7084C89.5108 48.7084 89.2175 49.0016 89.2175 49.3633C89.2175 49.3634 89.2175 49.3634 89.2175 49.3635C89.2175 49.7253 89.5108 50.0186 89.8727 50.0186C92.8445 50.0186 105.041 50.0186 108.018 50.0186C108.381 50.0186 108.676 49.7243 108.676 49.3611C108.676 49.361 108.676 49.361 108.676 49.3609Z" fill="#470589"/>
<path fill-rule="evenodd" clip-rule="evenodd" d="M108.679 54.1541C108.679 53.7937 108.387 53.5016 108.026 53.5016C103.602 53.5016 78.0375 53.5016 73.6048 53.5016C73.4311 53.5016 73.2644 53.5706 73.1415 53.6934C73.0187 53.8163 72.9497 53.983 72.9497 54.1567C72.9497 54.3305 73.0187 54.4971 73.1415 54.62C73.2644 54.7428 73.4311 54.8119 73.6048 54.8119C78.0362 54.8119 103.583 54.8119 108.022 54.8119C108.385 54.8119 108.679 54.5175 108.679 54.1543C108.679 54.1543 108.679 54.1542 108.679 54.1541Z" fill="#470589"/>
<path fill-rule="evenodd" clip-rule="evenodd" d="M108.679 58.951C108.679 58.7779 108.627 58.612 108.535 58.4896C108.444 58.3672 108.318 58.2985 108.189 58.2985C104.65 58.2985 83.037 58.2985 79.4917 58.2985C79.22 58.2985 79 58.5918 79 58.9536C79 59.3154 79.22 59.6087 79.4917 59.6087H108.185C108.457 59.6087 108.679 59.3144 108.679 58.9512C108.679 58.9511 108.679 58.9511 108.679 58.951Z" fill="#470589"/>
<path fill-rule="evenodd" clip-rule="evenodd" d="M108.683 63.748C108.683 63.5749 108.629 63.4089 108.533 63.2865C108.437 63.1641 108.307 63.0954 108.171 63.0954C104.279 63.0954 79.4123 63.0954 75.5138 63.0954C75.3775 63.0954 75.2468 63.1644 75.1504 63.2872C75.0541 63.4101 75 63.5768 75 63.7505C75 63.9243 75.0541 64.0909 75.1504 64.2138C75.2468 64.3367 75.3775 64.4057 75.5138 64.4057C79.411 64.4057 104.264 64.4057 108.167 64.4057C108.304 64.4057 108.435 64.3364 108.532 64.2131C108.629 64.0898 108.683 63.9225 108.683 63.7481C108.683 63.7481 108.683 63.748 108.683 63.748Z" fill="#470589"/>
<path fill-rule="evenodd" clip-rule="evenodd" d="M108.678 68.5448C108.678 68.1844 108.459 67.8923 108.189 67.8923C104.651 67.8923 83.0346 67.8923 79.4913 67.8923C79.361 67.8923 79.236 67.9613 79.1438 68.0841C79.0517 68.207 79 68.3736 79 68.5474C79 68.7212 79.0517 68.8878 79.1438 69.0106C79.236 69.1335 79.361 69.2025 79.4913 69.2025H108.184C108.457 69.2025 108.678 68.9082 108.678 68.545C108.678 68.5449 108.678 68.5449 108.678 68.5448Z" fill="#470589"/>
<path fill-rule="evenodd" clip-rule="evenodd" d="M108.691 73.338C108.691 72.9776 108.468 72.6855 108.192 72.6855C104.557 72.6855 82.1417 72.6855 78.4999 72.6855C78.2238 72.6855 78 72.9787 78 73.3404C78 73.3405 78 73.3407 78 73.3408C78 73.7025 78.2238 73.9958 78.4999 73.9958C82.1405 73.9958 104.542 73.9958 108.189 73.9958C108.466 73.9958 108.691 73.7014 108.691 73.3382C108.691 73.3381 108.691 73.3381 108.691 73.338Z" fill="#470589"/>
<path fill-rule="evenodd" clip-rule="evenodd" d="M108.695 78.135C108.695 77.7746 108.471 77.4824 108.195 77.4824C104.411 77.4824 80.2916 77.4824 76.501 77.4824C76.2243 77.4824 76 77.7757 76 78.1375C76 78.4994 76.2243 78.7927 76.501 78.7927H108.191C108.47 78.7927 108.695 78.4983 108.695 78.1351C108.695 78.1351 108.695 78.135 108.695 78.135Z" fill="#470589"/>
<path d="M8.19923 9.23111C9.04884 9.23111 9.73758 8.54237 9.73758 7.69276C9.73758 6.84316 9.04884 6.15442 8.19923 6.15442C7.34963 6.15442 6.66089 6.84316 6.66089 7.69276C6.66089 8.54237 7.34963 9.23111 8.19923 9.23111Z" fill="#FF0032"/>
<path d="M12.9961 9.23111C13.8457 9.23111 14.5345 8.54237 14.5345 7.69276C14.5345 6.84316 13.8457 6.15442 12.9961 6.15442C12.1465 6.15442 11.4578 6.84316 11.4578 7.69276C11.4578 8.54237 12.1465 9.23111 12.9961 9.23111Z" fill="#FFBB00"/>
<path d="M18.836 9.23111C19.6856 9.23111 20.3743 8.54237 20.3743 7.69276C20.3743 6.84316 19.6856 6.15442 18.836 6.15442C17.9863 6.15442 17.2976 6.84316 17.2976 7.69276C17.2976 8.54237 17.9863 9.23111 18.836 9.23111Z" fill="#00FF30"/>
<path fill-rule="evenodd" clip-rule="evenodd" d="M60.5706 28.641C60.5706 27.6189 60.1646 26.6387 59.4419 25.916C58.7192 25.1932 57.7389 24.7872 56.7168 24.7872C47.455 24.7872 24.0282 24.7872 14.756 24.7872C13.7311 24.7872 12.7483 25.1943 12.0236 25.9189C11.2989 26.6436 10.8918 27.6265 10.8918 28.6513C10.8918 38.7369 10.8918 65.7709 10.8918 75.8451C10.8918 76.8671 11.2979 77.8473 12.0206 78.5699C12.7433 79.293 13.7236 79.699 14.7457 79.699C24.0109 79.699 47.4516 79.699 56.7168 79.699C57.7389 79.699 58.7192 79.293 59.4419 78.5699C60.1646 77.8473 60.5706 76.8671 60.5706 75.8451C60.5706 65.7675 60.5706 38.7184 60.5706 28.641Z" stroke="#470589" stroke-miterlimit="1.5" stroke-linecap="round" stroke-linejoin="round"/>
<path d="M54.096 32.2767H35.7869C35.2346 32.2767 34.7869 32.7244 34.7869 33.2767V39.2838C34.7869 39.8361 35.2346 40.2838 35.7869 40.2838H54.096C54.6483 40.2838 55.096 39.8361 55.096 39.2838V33.2767C55.096 32.7244 54.6483 32.2767 54.096 32.2767Z" stroke="#470589" stroke-miterlimit="1.5" stroke-linecap="round" stroke-linejoin="round"/>
<path d="M25.4354 32.5896H17.9102C17.3579 32.5896 16.9102 33.0373 16.9102 33.5896V39.6438C16.9102 40.1961 17.3579 40.6438 17.9102 40.6438H25.4354C25.9876 40.6438 26.4354 40.1961 26.4354 39.6438V33.5896C26.4354 33.0373 25.9876 32.5896 25.4354 32.5896Z" stroke="#470589" stroke-miterlimit="1.5" stroke-linecap="round" stroke-linejoin="round"/>
<path d="M54.091 45.2783H17.7612C17.2089 45.2783 16.7612 45.726 16.7612 46.2783V54.227C16.7612 54.7792 17.2089 55.227 17.7612 55.227H54.091C54.6433 55.227 55.091 54.7792 55.091 54.227V46.2783C55.091 45.726 54.6433 45.2783 54.091 45.2783Z" stroke="#470589" stroke-miterlimit="1.5" stroke-linecap="round" stroke-linejoin="round"/>
<path fill-rule="evenodd" clip-rule="evenodd" d="M52.2798 62.6362C52.2798 62.2728 51.9856 61.9781 51.6225 61.9781C47.1649 61.9781 21.44 61.9781 16.9748 61.9781C16.6101 61.9781 16.3145 62.2738 16.3145 62.6386C16.3145 62.6387 16.3145 62.6387 16.3145 62.6388C16.3145 63.0036 16.6101 63.2993 16.9748 63.2993C21.4386 63.2993 47.1456 63.2993 51.6169 63.2993C51.7923 63.2993 51.9608 63.2294 52.0851 63.1051C52.2107 62.9808 52.2798 62.8121 52.2798 62.6363V62.6362Z" fill="#470589"/>
<path fill-rule="evenodd" clip-rule="evenodd" d="M41.7325 65.9155C41.7325 65.5551 41.4404 65.2629 41.0801 65.2629C37.5312 65.2629 20.5848 65.2629 17.0291 65.2629C16.8554 65.2629 16.6887 65.332 16.5658 65.4548C16.443 65.5777 16.374 65.7443 16.374 65.9181C16.374 66.0918 16.443 66.2585 16.5658 66.3813C16.6887 66.5042 16.8554 66.5732 17.0291 66.5732C20.5828 66.5732 37.5156 66.5732 41.0752 66.5732C41.2495 66.5732 41.417 66.5039 41.5397 66.3807C41.6633 66.2573 41.7325 66.0901 41.7325 65.9157C41.7325 65.9156 41.7325 65.9156 41.7325 65.9155Z" fill="#470589"/>
<path fill-rule="evenodd" clip-rule="evenodd" d="M35.4334 69.2563C35.4334 69.0832 35.3646 68.9172 35.2424 68.7948C35.1202 68.6724 34.9541 68.6037 34.7806 68.6037C31.8549 68.6037 19.9603 68.6037 17.0291 68.6037C16.8554 68.6037 16.6888 68.6727 16.5659 68.7955C16.443 68.9184 16.374 69.0851 16.374 69.2588C16.374 69.4326 16.443 69.5992 16.5659 69.7221C16.6888 69.845 16.8554 69.914 17.0291 69.914C19.9589 69.914 31.8417 69.914 34.7762 69.914C35.1392 69.914 35.4334 69.6196 35.4334 69.2564C35.4334 69.2564 35.4334 69.2563 35.4334 69.2563Z" fill="#470589"/>
<path fill-rule="evenodd" clip-rule="evenodd" d="M46.2369 72.5113C46.2369 72.1508 45.9446 71.8587 45.5845 71.8587C41.6368 71.8587 20.9842 71.8587 17.0291 71.8587C16.6673 71.8587 16.374 72.152 16.374 72.5138C16.374 72.8757 16.6673 73.169 17.0291 73.169C20.983 73.169 41.6196 73.169 45.5799 73.169C45.9423 73.169 46.2369 72.8746 46.2369 72.5114C46.2369 72.5114 46.2369 72.5113 46.2369 72.5113Z" fill="#470589"/>
<path fill-rule="evenodd" clip-rule="evenodd" d="M52.1392 65.7852C52.1392 65.4248 51.847 65.1326 51.4868 65.1326C50.0997 65.1326 46.8721 65.1326 45.4828 65.1326C45.1209 65.1326 44.8276 65.4259 44.8276 65.7877C44.8276 66.1496 45.1209 66.4429 45.4828 66.4429H51.4818C51.8448 66.4429 52.1392 66.1485 52.1392 65.7853C52.1392 65.7853 52.1392 65.7852 52.1392 65.7852Z" fill="#470589"/>
</svg>
