<svg width="53" height="45" viewBox="0 0 53 45" fill="none" xmlns="http://www.w3.org/2000/svg">
<path fill-rule="evenodd" clip-rule="evenodd" d="M10.8339 0.00646973C7.85771 0.00646973 5.65545 2.76494 5.75407 5.75643C5.84871 8.63043 5.72575 12.3527 4.84085 15.3882C3.9528 18.4322 2.45196 20.3612 0 20.6088V23.4042C2.45196 23.6523 3.9528 25.5803 4.84075 28.6247C5.72575 31.6602 5.84861 35.3825 5.75397 38.2565C5.65535 41.2476 7.85761 44.0065 10.8343 44.0065H41.3307C44.3069 44.0065 46.5087 41.248 46.4101 38.2565C46.3155 35.3825 46.4384 31.6602 47.3233 28.6247C48.2114 25.5803 49.7086 23.6515 52.1606 23.4042V20.6088C49.7087 20.3607 48.2115 18.4326 47.3233 15.3882C46.4383 12.3531 46.3155 8.63043 46.4101 5.75643C46.5087 2.76537 44.3069 0.00646973 41.3307 0.00646973H10.8335H10.8339ZM35.3632 27.0914C35.3632 31.2105 32.4616 33.7087 27.6465 33.7087H19.4497C19.2152 33.7087 18.9904 33.61 18.8246 33.4345C18.6588 33.2589 18.5656 33.0208 18.5656 32.7725V11.2406C18.5656 10.9923 18.6588 10.7542 18.8246 10.5786C18.9904 10.403 19.2152 10.3044 19.4497 10.3044H27.5998C31.6148 10.3044 34.2499 12.6074 34.2499 16.1432C34.2499 18.625 32.4772 20.8468 30.2189 21.236V21.3655C33.2931 21.7225 35.3632 23.9772 35.3632 27.0914V27.0914ZM26.7527 13.272H22.079V20.2626H26.0154C29.0585 20.2626 30.7364 18.965 30.7364 16.6457C30.7361 14.4722 29.2935 13.272 26.7527 13.272ZM22.079 23.0363V30.74H26.9247C30.093 30.74 31.7712 29.3938 31.7712 26.8638C31.7712 24.3339 30.0459 23.0359 26.7209 23.0359H22.079V23.0363Z" fill="#7952B3"/>
</svg>
