<svg width="134" height="87" viewBox="0 0 134 87" fill="none" xmlns="http://www.w3.org/2000/svg">
	<path
		d="M8 0.5H125.611C129.753 0.5 133.111 3.85786 133.111 8V12.4948V78.4227C133.111 82.5648 129.753 85.9227 125.611 85.9227H7.99999C3.85786 85.9227 0.5 82.5648 0.5 78.4227V12.4948V8C0.5 3.85787 3.85786 0.5 8 0.5Z"
		stroke="#470589"
	/>
	<ellipse cx="9.76408" cy="6.76803" rx="1.54167" ry="1.56186" fill="#FF0000" />
	<ellipse cx="9.76408" cy="6.76803" rx="1.54167" ry="1.56186" fill="#FF0000" />
	<ellipse cx="9.76408" cy="6.76803" rx="1.54167" ry="1.56186" fill="#FF0000" />
	<ellipse cx="15.9306" cy="6.76803" rx="1.54167" ry="1.56186" fill="#FF9900" />
	<ellipse cx="22.0973" cy="6.76803" rx="1.54167" ry="1.56186" fill="#00FF00" />
	<line x1="1" y1="12.5" x2="133" y2="12.5" stroke="#470589" />
	<path
		d="M52.7227 36.1582L52.7236 36.1591C52.8421 36.273 52.9351 36.4073 52.9982 36.5538C53.0613 36.7003 53.0935 36.8566 53.0935 37.014C53.0935 37.1715 53.0613 37.3278 52.9982 37.4743C52.9351 37.6208 52.8421 37.7551 52.7236 37.869L52.7232 37.8694L41.5119 48.6707L41.1382 49.0308L41.5119 49.3909L52.7232 60.1922C52.7232 60.1922 52.7232 60.1922 52.7232 60.1923C52.962 60.4224 53.0925 60.7304 53.0925 61.0476C53.0925 61.3648 52.962 61.6729 52.7232 61.903C52.4838 62.1337 52.1553 62.2664 51.809 62.2664C51.4628 62.2664 51.1342 62.1337 50.8948 61.903L38.4259 49.8862L38.4255 49.8858C38.307 49.7719 38.214 49.6375 38.1509 49.491C38.0879 49.3446 38.0557 49.1882 38.0557 49.0308C38.0557 48.8734 38.0879 48.7171 38.1509 48.5706C38.214 48.4241 38.307 48.2898 38.4255 48.1759L38.4259 48.1754L50.8948 36.1586L50.8953 36.1582C51.0135 36.044 51.1549 35.9524 51.312 35.8896C51.469 35.8268 51.638 35.7943 51.809 35.7943C51.9801 35.7943 52.149 35.8268 52.306 35.8896C52.4631 35.9524 52.6045 36.044 52.7227 36.1582ZM75.8321 36.1591L75.8331 36.1582C75.9513 36.044 76.0927 35.9524 76.2497 35.8896C76.4068 35.8268 76.5757 35.7943 76.7468 35.7943C76.9178 35.7943 77.0868 35.8268 77.2438 35.8896C77.4008 35.9524 77.5423 36.044 77.6605 36.1582L77.6609 36.1586L90.1298 48.1754L90.1303 48.1759C90.2488 48.2898 90.3418 48.4241 90.4049 48.5706C90.4679 48.7171 90.5001 48.8734 90.5001 49.0308C90.5001 49.1882 90.4679 49.3446 90.4049 49.491C90.3418 49.6375 90.2488 49.7719 90.1303 49.8858L90.1298 49.8862L77.6609 61.903C77.5426 62.0171 77.401 62.1085 77.2439 62.1712C77.0868 62.2339 76.9178 62.2664 76.7468 62.2664C76.5757 62.2664 76.4067 62.2339 76.2496 62.1712C76.0925 62.1085 75.951 62.0171 75.8326 61.903C75.7142 61.7889 75.6214 61.6545 75.5584 61.5079C75.4954 61.3614 75.4633 61.205 75.4633 61.0476C75.4633 60.8901 75.4954 60.7338 75.5584 60.5872C75.6214 60.4407 75.7142 60.3063 75.8325 60.1923C75.8326 60.1922 75.8326 60.1922 75.8326 60.1922L87.0439 49.3909L87.4176 49.0308L87.0439 48.6707L75.8325 37.8694L75.8321 37.869C75.7136 37.7551 75.6207 37.6208 75.5576 37.4743C75.4945 37.3278 75.4623 37.1715 75.4623 37.014C75.4623 36.8566 75.4945 36.7003 75.5576 36.5538C75.6207 36.4073 75.7136 36.273 75.8321 36.1591ZM71.7842 25.5555L71.8714 25.5814C72.16 25.6899 72.3955 25.8935 72.5368 26.1515C72.6918 26.4343 72.7232 26.7627 72.6261 27.0663L72.626 27.0666L58.3792 71.6898C58.2711 71.9792 58.0499 72.2231 57.7552 72.3664C57.457 72.5113 57.1105 72.5398 56.7897 72.4447C56.4693 72.3496 56.2047 72.1403 56.0472 71.8665C55.8916 71.5962 55.8504 71.2811 55.9296 70.9846L70.1761 26.3621C70.1762 26.362 70.1762 26.3619 70.1762 26.3618C70.2739 26.0578 70.4947 25.7979 70.7968 25.6442C71.0995 25.4902 71.4552 25.4577 71.7842 25.5555Z"
		stroke="#470589"
	/>
	<path
		d="M29.6563 31.5H30.9642V34H29.6594V33.9999L29.6496 34.0001C29.3377 34.0062 27.8667 34.0893 26.462 35.0845C25.0256 36.1021 23.7447 38.0118 23.7447 41.5C23.7447 44.8616 22.5939 46.9102 21.2049 48.1234L20.7738 48.5L21.2049 48.8766C22.5939 50.0898 23.7447 52.1384 23.7447 55.5C23.7447 58.9882 25.0256 60.8981 26.4648 61.9158C27.8723 62.911 29.3484 62.9938 29.6698 62.9999L29.6698 63H29.6792H30.9642V65.5H29.6605C28.1975 65.4967 26.0614 64.9744 24.2997 63.4746C22.5564 61.9906 21.135 59.512 21.135 55.5C21.135 52.7827 20.2213 51.3062 19.1859 50.5287C18.568 50.0648 17.9423 49.8771 17.522 49.8012L17.5033 47.1991C17.9916 47.1153 18.6993 46.8978 19.366 46.3392C20.339 45.524 21.135 44.0592 21.135 41.5C21.135 37.488 22.5564 35.0094 24.2993 33.5253C26.0604 32.0257 28.1952 31.5034 29.6563 31.5ZM98.8987 65.5H97.5913V63L98.8962 63.0001L98.906 62.9999C99.2178 62.9938 100.689 62.9107 102.094 61.9155C103.53 60.8979 104.811 58.9882 104.811 55.5C104.811 52.1384 105.962 50.0898 107.351 48.8766L107.782 48.5L107.351 48.1234C105.962 46.9102 104.811 44.8616 104.811 41.5C104.811 38.0118 103.53 36.1019 102.091 35.0842C100.683 34.089 99.2071 34.0062 98.8858 34.0001V34H98.8764H97.5913V31.5H98.8956C100.359 31.5034 102.494 32.0258 104.256 33.5254C105.999 35.0094 107.421 37.488 107.421 41.5C107.421 44.2173 108.334 45.6938 109.37 46.4713C109.988 46.9352 110.613 47.1229 111.034 47.1988L111.052 49.8009C110.564 49.8847 109.856 50.1022 109.19 50.6608C108.217 51.476 107.421 52.9408 107.421 55.5C107.421 59.512 105.999 61.9906 104.256 63.4747C102.495 64.9744 100.36 65.4967 98.8987 65.5Z"
		stroke="#470589"
	/>
</svg>
