<svg width="38" height="45" viewBox="0 0 38 45" fill="none" xmlns="http://www.w3.org/2000/svg">
	<path
		d="M0.0112305 0.34375L3.46764 39.9319L18.9769 44.3438L34.5296 39.9158L37.9887 0.34375H0.0112305V0.34375ZM30.8081 9.41358L29.6576 22.6017L29.661 22.6729L29.6562 22.8367V22.8353L28.8388 32.0566L28.7487 32.8758L19 35.6267V35.6271L18.9924 35.6337L9.26051 32.8674L8.60154 25.2435H13.3738L13.7124 29.1202L19.0014 30.5826L19 30.5854V30.5847L24.3085 29.1016L24.8695 22.7886H13.7722L13.677 21.7214L13.4601 19.2213L13.3463 17.8788H25.2913L25.7258 12.969H7.53248L7.43726 11.9025L7.2207 9.40166L7.10657 8.05917H30.9219L30.8081 9.41358V9.41358Z"
		fill="#1572B6"
	/>
</svg>
