<svg width="112" height="90" viewBox="0 0 112 90" fill="none" xmlns="http://www.w3.org/2000/svg">
	<path
		d="M40.9091 2.91876C19.2683 5.04776 1.72487 24.5808 2.04546 46.3636M47.0455 2.77222C69.3701 3.91444 87.2622 22.6422 86.9672 45M86.9672 50.4545C84.0591 70.7072 66.7962 86.3568 46.3636 87.2727M2.72728 51.8182C5.52096 71.4649 21.1937 85.2902 40.9091 87.0927"
		stroke="#470589"
		strokeLinecap="round"
		strokeLinejoin="round"
	/>
	<line x1="87.0909" y1="3.22729" x2="87.0909" y2="86.7728" stroke="#470589" strokeLinecap="round" strokeLinejoin="round" />
	<circle cx="87.1454" cy="86.5909" r="2.04545" fill="#470589" />
	<circle cx="87.1454" cy="3.4091" r="2.04545" fill="#470589" />
	<rect x="41.4318" y="0.25" width="4.95455" height="4.95455" rx="0.25" stroke="#470589" strokeWidth="0.5" />
	<rect x="84.7954" y="45.25" width="4.95455" height="4.95455" rx="0.25" fill="white" stroke="#470589" strokeWidth="0.5" />
	<rect x="41.1591" y="84.7955" width="4.95455" height="4.95455" rx="0.25" stroke="#470589" strokeWidth="0.5" />
	<rect x="0.25" y="46.6136" width="4.95455" height="4.95455" rx="0.25" stroke="#470589" strokeWidth="0.5" />
	<path
		d="M106.249 35.7559L106.249 35.7564L109.189 41.4005L109.189 41.401C109.199 41.4199 109.205 41.4406 109.207 41.4619C109.209 41.4832 109.206 41.5047 109.2 41.525C109.194 41.5454 109.183 41.5644 109.169 41.5807C109.156 41.5971 109.139 41.6106 109.12 41.6204L109.102 41.6295L109.086 41.6402L105.402 44.0382L105.327 44.0874L105.279 44.1642L103.27 47.4389L103.27 47.439C103.153 47.6293 102.989 47.7859 102.794 47.8936C102.598 48.0013 102.378 48.0564 102.155 48.0534L90.7483 47.8974L97.1585 38.4599C97.2839 38.2756 97.455 38.127 97.6551 38.0286C97.8551 37.9303 98.0772 37.8856 98.2997 37.8989C98.2998 37.8989 98.2998 37.8989 98.2999 37.8989L101.742 38.1066L101.642 38.4261L98.2809 38.2233C98.2809 38.2233 98.2808 38.2233 98.2808 38.2233C98.114 38.2132 97.9475 38.2467 97.7976 38.3205C97.6478 38.3942 97.5198 38.5056 97.4261 38.6438C97.426 38.6438 97.426 38.6438 97.426 38.6439C97.4259 38.644 97.4259 38.6441 97.4258 38.6442L91.7733 46.9655L91.3559 47.58L92.0987 47.5902L102.16 47.7283L102.161 47.7283C102.327 47.7302 102.491 47.6888 102.637 47.6084C102.782 47.528 102.905 47.4113 102.992 47.2695L102.992 47.2694L104.917 44.132L105.035 43.9389L104.931 43.738L102.285 38.6583L102.005 38.1225L102.135 38.1303L102.266 38.1382L102.377 38.0662L106.041 35.6811C106.057 35.6745 106.073 35.6704 106.09 35.669C106.111 35.6671 106.133 35.6694 106.153 35.6758C106.174 35.6823 106.192 35.6926 106.209 35.7064C106.225 35.7201 106.239 35.737 106.249 35.7559Z"
		stroke="#470589"
		strokeWidth="0.8"
	/>
	<path
		d="M99.0323 44.0305L95.3249 45.5135L98.665 43.3255L98.7845 43.2472L98.8274 43.111C98.8704 42.9743 98.9531 42.8534 99.0649 42.7636C99.1767 42.6738 99.3126 42.6192 99.4555 42.6066C99.5983 42.5941 99.7417 42.6242 99.8674 42.6932C99.9932 42.7621 100.096 42.8668 100.162 42.9939L100.517 42.8091L100.162 42.9939C100.228 43.1211 100.255 43.2651 100.24 43.4076C100.224 43.5502 100.167 43.6849 100.074 43.7948C99.9822 43.9046 99.8596 43.9847 99.7219 44.0249C99.5843 44.065 99.4378 44.0635 99.301 44.0204L99.1649 43.9775L99.0323 44.0305Z"
		stroke="#470589"
		strokeWidth="0.8"
	/>
</svg>
