<svg width="44" height="44" viewBox="0 0 44 44" fill="none" xmlns="http://www.w3.org/2000/svg">
	<rect width="44" height="44" rx="7" fill="#2E3039" />
	<path
		d="M17.25 37.5C20.148 37.5 22.5 35.148 22.5 32.25V27H17.25C14.352 27 12 29.352 12 32.25C12 35.148 14.352 37.5 17.25 37.5Z"
		fill="#0ACF83"
	/>
	<path d="M12 21.7499C12 18.8519 14.352 16.4999 17.25 16.4999H22.5V26.9999H17.25C14.352 26.9999 12 24.6479 12 21.7499Z" fill="#A259FF" />
	<path d="M12 11.25C12 8.352 14.352 6 17.25 6H22.5V16.5H17.25C14.352 16.5 12 14.148 12 11.25Z" fill="#F24E1E" />
	<path d="M22.5 6H27.75C30.648 6 33 8.352 33 11.25C33 14.148 30.648 16.5 27.75 16.5H22.5V6Z" fill="#FF7262" />
	<path
		d="M33 21.7499C33 24.6479 30.648 26.9999 27.75 26.9999C24.852 26.9999 22.5 24.6479 22.5 21.7499C22.5 18.8519 24.852 16.4999 27.75 16.4999C30.648 16.4999 33 18.8519 33 21.7499Z"
		fill="#1ABCFE"
	/>
</svg>
