<svg width="39" height="44" viewBox="0 0 39 44" fill="none" xmlns="http://www.w3.org/2000/svg">
<path d="M6.4747 19.2345C5.1902 19.8387 1.79046 22.5586 1.13566 23.3645C0.455642 24.1704 0.254232 22.9113 0.959352 20.821C1.51326 19.1337 2.92375 16.8419 5.29097 14.8776C6.67598 13.7443 9.72334 12.1075 11.5868 11.1504C11.9647 10.9488 16.8503 8.88379 21.2072 7.85127C21.585 7.7505 20.7539 8.48084 20.6279 8.88379C19.9731 10.7977 6.90262 19.0077 6.90262 19.0077L6.4747 19.2345ZM24.884 42.328C25.1106 43.6879 24.9092 43.7887 23.499 43.965C22.0886 44.1413 21.0561 43.6124 20.6784 43.2599C20.3005 42.9071 20.2251 42.1266 20.6028 41.4215C20.8296 40.9681 21.0562 40.817 21.1822 40.2629C21.3081 39.7341 21.4088 39.6081 21.5095 39.4067C21.6101 39.2303 21.6355 39.054 21.6606 37.8201C21.6858 36.5861 21.6606 34.2691 21.7866 33.287C21.9125 32.2797 26.2694 33.7403 26.2694 33.7403C26.2694 33.7403 25.2367 36.3091 24.9598 36.9386C24.6827 37.5683 24.7079 38.777 24.7079 39.0289C24.7079 39.2807 24.6073 39.7843 24.5316 39.8096C24.4561 39.8347 24.7835 40.4895 24.6323 40.8673C24.5315 41.2199 24.8589 42.1266 24.884 42.328ZM26.5462 3.82183C26.395 2.86486 26.5462 0.975881 26.7476 0.673828C27.3773 -0.182505 30.7015 -0.283148 31.4068 0.724149C31.7089 1.17741 31.6837 2.23516 31.6334 2.91518C31.5831 3.59508 31.4068 5.05576 31.3815 5.53437C31.3564 5.887 27.7047 6.4409 26.8988 5.48393C26.6721 5.2322 26.5462 3.82183 26.5462 3.82183ZM33.9503 39.8851C35.4865 40.9933 36.6701 41.1947 37.4508 41.5976C38.2314 42.0007 38.03 42.7814 36.7204 43.008C35.6627 43.2094 34.0006 42.8065 32.8925 42.8065C31.7845 42.8065 29.3164 42.9325 28.6616 42.4792C27.9061 41.9504 28.2334 40.9681 28.2334 40.9681C28.4349 40.4142 28.9385 39.18 28.7874 38.1727C28.6363 37.1654 28.4348 36.6114 28.0571 35.6795C27.6794 34.7477 27.4024 32.456 27.755 32.3301C28.1077 32.2041 28.0068 32.3301 28.4602 32.4307C28.9134 32.5313 29.4171 32.6826 30.3993 32.6826C31.3815 32.6826 32.4644 32.5313 32.8422 32.4559C33.2199 32.3804 33.5221 32.3047 33.3961 33.0855C33.2703 33.8662 32.8925 35.3269 32.8673 36.4601C32.8422 37.5934 32.8422 38.903 32.9178 39.1297C32.9932 39.3563 33.5473 39.6081 33.9503 39.8851Z" fill="#010101"/>
<path d="M28.5611 6.34025C25.7909 8.73282 20.4266 9.38749 12.4687 12.46C10.4287 13.2406 4.98904 15.5827 3.67944 18.0256C8.0866 15.4821 9.7236 18.9826 10.0761 22.5839C10.4034 25.9585 12.0908 27.7215 16.4224 27.6206C20.88 27.52 22.2399 30.1138 23.4739 33.1612C25.8663 21.5009 29.6943 19.2344 32.1622 17.245C37.4006 12.9888 30.9535 5.48392 28.5611 6.34025Z" fill="#8AC640"/>
<path d="M28.561 6.34021C21.9125 8.6571 15.3394 9.23636 7.60806 13.9961C5.76966 15.1294 1.89131 17.6981 1.13574 22.609C3.95622 19.4861 10.4789 15.5576 18.4622 13.0644C22.4916 11.8051 25.4382 10.9741 29.0143 9.58898C28.7625 7.97708 28.7625 7.34751 28.561 6.34021Z" fill="#8AC640"/>
<path d="M37.0479 20.141C37.0479 20.141 36.5694 21.778 35.6124 22.307C35.6124 22.307 34.9073 22.5588 33.4971 21.7781C33.0941 21.5515 32.792 20.7708 32.8171 20.5189C32.8423 19.9144 33.22 19.6374 33.22 19.6374C33.22 19.6374 33.6231 18.9574 34.1014 18.9826C34.58 19.0077 35.3859 19.0833 35.6378 18.8566C35.8643 18.6048 37.0984 19.3099 37.0479 20.141ZM26.7729 4.30036C26.7729 4.30036 26.6723 5.58485 26.496 6.39062C26.4707 6.54183 25.7153 6.61725 25.1611 6.84401C26.2189 9.86602 32.5904 9.8408 33.4215 8.35501C33.0186 8.07806 32.2127 7.64989 31.835 7.49881C31.4571 7.34759 31.4824 7.37282 31.4571 6.6677C31.432 5.96245 31.3816 4.65298 31.3312 4.30036C31.2808 3.94773 27.3773 3.94773 26.7729 4.30036Z" fill="#010101"/>
<path d="M27.0246 4.30034C27.0246 4.30034 27.0246 5.03069 26.9491 5.73581C26.924 6.06321 26.8988 6.26462 26.8484 6.51647C26.8232 6.66769 27.7046 7.27191 27.9565 8.60674C29.1653 11.3014 31.9608 9.96665 33.1192 8.68228C32.7163 8.4052 32.0615 8.02748 31.306 7.7253C30.9282 7.57409 31.1045 7.24682 31.0794 6.5417C31.0542 5.83657 30.9534 4.80393 30.9031 4.42621C30.8525 4.04849 27.6291 3.94772 27.0246 4.30034Z" fill="#F0EFEF"/>
<path d="M26.7728 4.30036C26.7728 4.30036 26.7475 4.75374 26.6721 5.28255C26.9994 5.60983 27.4276 6.06322 27.7551 6.3403C27.9817 6.54183 28.5356 6.51661 29.0395 6.51661C29.4927 6.51661 29.8957 6.56693 30.072 6.46629C30.475 6.26475 31.0542 5.76117 31.3816 5.38332C31.3565 4.93006 31.3313 4.50189 31.3062 4.30036C31.2807 3.94773 27.3771 3.94773 26.7728 4.30036Z" fill="#010101"/>
<path d="M29.0647 6.21431C28.7624 6.21431 28.4097 6.18921 28.1328 6.13877C28.0068 6.11367 27.8809 6.03812 27.7802 5.98768C27.6039 5.86169 27.4275 5.71072 27.2263 5.55951C26.8232 5.25734 26.7981 5.08102 26.7981 5.0056C26.9744 3.41893 26.7476 2.08423 26.7476 2.08423C26.7476 2.08423 26.5713 1.40421 27.5283 1.2279C28.4853 1.05159 29.0645 1.02649 29.0645 1.02649C29.0645 1.02649 29.669 1.02649 30.6008 1.2279C31.5577 1.40421 31.3814 2.08423 31.3814 2.08423C31.3814 2.08423 31.1548 3.41893 31.3311 5.0056C31.3311 5.08102 31.306 5.25734 30.9029 5.55951C30.5503 5.81137 30.2734 6.08832 29.9964 6.13877C29.7193 6.18921 29.3667 6.21431 29.0647 6.21431Z" fill="#010101"/>
<path d="M29.0647 0.371704C27.4026 0.371704 27.0751 0.824969 26.5966 1.32868C26.496 1.45455 26.5714 2.21011 26.7478 3.82189H26.9744C26.9744 3.82189 26.8232 3.3685 26.8485 2.83969C26.8737 2.31088 26.9744 2.3361 26.8988 2.21011C26.7981 2.0589 26.5966 1.80704 27.05 1.55531C27.5033 1.30346 28.2084 1.75672 29.0647 1.78194C29.9209 1.75672 30.6513 1.30346 31.1045 1.55531C31.5578 1.80704 31.3564 2.0589 31.2557 2.21011C31.155 2.3612 31.2808 2.31075 31.3061 2.83969C31.3312 3.3685 31.1801 3.82189 31.1801 3.82189H31.4067C31.5578 2.21011 31.6586 1.50499 31.583 1.379C31.1548 0.824969 30.7268 0.396803 29.0647 0.371704ZM37.0479 20.2166C37.0479 20.2166 36.5694 21.7528 35.6377 22.2816C35.4361 22.181 35.4614 22.0299 35.285 21.8031C35.2346 21.7277 35.0583 21.6771 34.9829 21.6017C34.9073 21.5262 34.9325 21.4002 34.8066 21.2995C34.7058 21.1988 34.6302 21.2743 34.5295 21.1988C34.4288 21.0981 34.4035 20.9721 34.3281 20.8967C34.2776 20.8463 34.0762 20.8212 34.0259 20.7707C33.8999 20.6447 32.792 20.4181 32.8423 20.1663C32.9429 19.7884 33.1445 19.5115 33.1445 19.5115C33.1445 19.5115 33.6229 18.8063 34.1013 18.8314C34.5798 18.8567 35.0332 18.9574 35.285 18.7308C35.5621 18.4788 37.1236 19.4107 37.0479 20.2166Z" fill="#010101"/>
<path d="M33.774 9.08529C33.774 9.08529 35.3605 8.70745 36.4435 9.74009C37.5264 10.7978 37.4508 12.1073 37.1235 12.9132C37.4005 13.2406 37.9042 14.1471 37.5264 15.2301C39.1885 16.6403 38.4582 18.8063 36.9724 20.2417C36.9724 20.2417 36.6198 18.9321 35.2095 18.8566C35.2599 18.353 33.8999 17.9499 34.5295 16.6403C33.5725 16.4137 33.5978 15.7589 33.4467 14.9531C33.3207 14.1471 33.774 9.08529 33.774 9.08529Z" fill="#010101"/>
<path d="M33.1948 9.79042C33.1948 9.79042 35.0332 8.85866 36.1161 9.91641C37.199 10.9741 36.8967 12.1325 36.5694 12.9384C36.8464 13.2657 37.5012 14.1977 37.0982 15.3056C37.0227 15.5575 36.4686 15.5575 36.0656 16.2123C37.0729 15.6329 37.7026 15.7841 37.9292 16.5143C38.2818 17.6476 37.501 19.0076 36.8211 19.7631C36.8211 19.7379 36.7959 19.7127 36.7959 19.6876C36.6953 20.0654 36.5693 20.7956 35.8138 21.6015C35.436 22.0045 35.1338 21.9541 34.7057 21.8534C34.2021 21.7274 34.0258 21.5006 33.3206 21.123C32.9177 20.8964 33.1443 20.6193 33.1443 20.3927C33.1443 20.3424 33.1946 20.2667 33.2703 20.1661C33.3206 20.0401 33.4717 19.8388 33.6984 19.612C33.6984 19.612 34.0258 19.1588 34.5044 19.1839C34.9829 19.2091 35.4864 19.1084 35.6124 18.9825C35.6124 18.101 34.6051 18.0758 34.9576 16.5648C34.9829 16.4892 35.1088 16.3633 35.5117 16.3129C34.9072 16.1869 34.6302 16.1617 34.2021 15.7589C33.8999 15.4819 33.6733 15.1293 33.5976 14.6761C33.4466 13.8954 33.1948 9.79042 33.1948 9.79042Z" fill="#F0EFEF"/>
<path d="M27.8808 8.20383C27.7297 8.0023 26.949 6.995 25.4631 6.59206C25.0349 6.46607 24.758 6.81869 24.3299 7.07055C24.204 6.995 23.6499 6.74315 23.3477 6.91933C23.0456 7.09552 22.8442 7.27196 22.5419 7.39782C22.3906 7.32228 21.9878 7.32228 21.6604 7.44814C21.333 7.54891 20.8293 7.77554 20.3508 8.43034C20.0487 9.51331 25.6897 8.7073 25.6897 8.7073L27.8808 8.20383Z" fill="#010101"/>
<path d="M27.9313 8.20394C27.1253 7.92686 27.2513 6.99511 25.4632 6.84402C25.1106 6.81879 24.8839 7.09575 24.6321 7.27206C24.7581 7.39805 24.8839 7.59946 24.9595 7.80087C24.7328 7.54914 24.3299 7.22161 23.9268 7.14607C23.5491 7.07065 23.2972 7.3476 22.8943 7.54914C22.9697 7.62456 23.0454 7.75055 23.146 7.90176C22.7934 7.67513 22.5417 7.59958 22.0632 7.77577C21.7358 7.87641 21.1062 8.15349 20.6277 8.83351C20.3255 9.91648 25.7149 8.70752 25.7149 8.70752L27.9313 8.20394Z" fill="#8AC640"/>
<path d="M32.6659 8.60689C32.6659 8.60689 32.6659 8.32981 32.6406 8.07808C32.6406 8.02776 32.4392 7.90177 32.4392 7.85144L32.3889 7.801C32.3889 7.801 32.7919 7.57437 33.094 7.70036C33.4213 7.801 33.5976 8.22917 33.5976 8.22917C34.1769 8.02776 34.2272 8.25439 34.5043 8.55656C35.1088 8.43058 35.1842 8.65721 35.562 9.21136C35.562 9.21136 35.1088 9.13582 34.2273 9.28678C33.371 9.41265 32.6659 8.58166 32.6659 8.60689Z" fill="#010101"/>
<path d="M32.565 8.48086C32.565 8.48086 32.7161 8.35487 32.6657 8.32964C32.9426 8.17856 33.3205 8.00237 33.4968 8.48086C34.076 8.27932 34.1516 8.5564 34.4285 8.8587C35.1336 8.5313 35.184 8.93412 35.2344 9.11043C35.0078 9.11043 34.6805 9.13565 34.2271 9.18598C33.3709 9.31197 32.5398 8.45563 32.565 8.48086Z" fill="#8AC640"/>
<path d="M24.0027 7.85132C24.0027 7.85132 25.4381 8.3549 26.647 8.27936C27.8558 8.17872 29.9208 8.07795 31.0289 8.73275C31.0289 8.73275 32.1622 8.32968 33.2199 8.60676C34.2778 8.88371 36.2168 10.697 35.6377 12.611C35.5873 12.737 35.2599 12.9384 34.8821 13.0644C34.8821 13.0644 35.0837 13.9206 34.7311 14.6257C34.3784 15.3057 33.5978 16.6153 33.5726 18.4285C33.5475 18.7307 33.4971 19.3602 33.4467 19.6624C31.4823 19.587 28.4603 18.8565 25.4886 18.907C25.5137 18.5797 25.5389 18.3782 25.5641 18.0508H25.6395C25.4885 17.2197 25.4381 16.7915 25.2869 16.1619C24.3299 15.5576 23.3225 14.8524 22.4664 13.5176C21.6353 12.1828 24.0027 7.85132 24.0027 7.85132ZM33.7236 21.4506C33.7236 21.4506 35.2851 27.0415 33.4467 29.3836C33.4467 29.3836 33.7236 30.4665 33.0941 31.625C32.9933 32.1286 32.8673 32.582 32.7919 33.0856C32.4645 35.1758 31.9103 36.0572 31.7592 39.4067L30.2481 39.3816C30.2481 39.3816 30.0718 36.9639 29.543 35.6795C29.2409 34.9493 28.0571 33.967 28.1077 32.9849C28.158 32.2293 28.3091 31.5998 29.5936 30.5923C29.6942 29.1318 28.2335 27.7465 28.4603 22.3068L33.7236 21.4506Z" fill="#010101"/>
<path d="M33.2705 21.2239C33.6734 23.7926 34.6052 27.5954 32.9179 29.4589C33.0174 29.9315 33.0259 30.4187 32.943 30.8944C32.8926 31.1966 32.7919 31.524 32.666 31.8765C32.4141 32.481 32.3134 33.3624 32.2378 33.8912C31.9104 35.9815 31.9104 36.0823 31.7593 39.4318L30.2482 39.4065C30.2482 39.4065 30.0719 36.9889 29.5431 35.7046C29.241 34.9743 28.6113 34.3447 28.561 33.3625C28.5107 32.6071 29.0395 31.0961 30.2988 31.1464C30.2232 28.0991 28.8129 28.7035 28.4352 22.3572L33.2705 21.2239ZM24.0028 7.85132C24.0028 7.85132 24.5568 8.02763 25.1612 8.07795C25.7656 8.12827 26.4204 8.07795 26.9996 8.05273C28.2084 7.95208 29.9209 7.8261 31.0542 8.48089C31.0542 8.48089 31.6838 8.27936 32.3638 8.32968C32.666 8.35491 32.9683 8.60676 33.3208 8.70753C34.4289 8.98448 35.4866 10.8229 35.008 12.4851C34.9577 12.6111 34.6051 12.4851 34.2021 12.6111C34.2775 12.9637 34.3281 13.7696 33.925 14.6258C33.497 15.4821 32.943 16.5902 33.0436 18.7057C30.3993 18.5797 29.2157 18.4035 26.5965 18.2775C26.3699 17.3457 26.2187 16.4139 26.1936 15.9354C26.5462 15.7591 26.7475 15.6081 27.0247 15.3058C26.2692 15.4318 25.9669 15.3814 25.5135 15.1295C25.0603 14.8777 24.2544 14.0718 23.8514 13.543C23.8011 13.4925 23.5242 14.3235 22.8946 14.3489C22.6678 14.0215 23.6248 13.0896 23.4485 12.7371C22.819 11.4526 24.0028 7.85132 24.0028 7.85132Z" fill="#F0EFEF"/>
<path d="M33.4717 19.1336C33.4717 19.1336 33.5221 20.0402 33.5221 20.2669C33.5221 20.5187 33.7236 21.2741 33.7487 21.6268C33.4717 22.1053 32.2629 23.1882 30.0719 23.5912C27.9061 24.0444 25.0352 20.6447 25.0352 20.6447C25.1107 20.3173 25.3626 19.3602 25.5389 18.8566C25.5641 18.8063 25.6144 18.6803 25.6144 18.63C25.8412 18.3026 33.4717 19.1336 33.4717 19.1336Z" fill="#010101"/>
<path d="M32.9178 19.2092C32.9178 19.8387 33.0185 20.2921 33.0941 20.6951C33.22 21.4254 33.4214 21.9039 33.4214 22.3824C33.4214 23.843 31.5075 23.5911 29.8956 23.6415C27.7298 24.0949 25.8914 20.6951 25.8914 20.6951C26.0424 20.1158 26.1432 19.4611 26.3698 18.907C26.3949 18.6048 26.4454 18.2271 26.4705 18.0508C29.5429 18.0508 31.7088 18.2271 32.968 18.3528C33.0185 18.6299 32.9682 19.1084 32.9178 19.2092Z" fill="#F0EFEF"/>
<path d="M30.5 22.4579C30.5 22.4579 29.1653 19.4862 25.161 20.3678C24.2041 23.0624 22.9196 26.1601 23.7507 29.5095C22.9196 30.6428 21.9626 31.2725 21.9626 33.3626C21.9626 35.4529 22.0634 35.8055 22.0634 35.8055L25.0099 35.9567C25.0099 35.9567 25.9669 34.7228 26.3446 33.388C26.4453 33.0101 26.5461 32.3302 26.4706 31.5496C26.5712 31.3985 26.9994 31.046 27.0498 30.366C27.0498 30.366 28.4853 29.6105 29.3164 27.7721C30.0972 26.1096 29.8957 24.6742 30.5 22.4579Z" fill="#010101"/>
<path d="M30.5 22.4578C30.4246 22.1809 29.4172 19.461 25.6899 20.2668C23.499 26.1095 24.3049 28.5272 24.6322 29.5848C23.1463 31.4736 22.4664 31.8765 22.7687 35.7045H24.7331C25.6396 34.2691 25.8411 33.7401 25.8915 31.8514C25.8915 31.7759 25.6145 32.0025 25.413 32.2543C25.5642 31.4737 25.9922 31.3226 26.3196 30.8441C26.4707 30.6426 26.5966 30.3404 26.5966 29.9375C28.3594 28.7538 29.0142 27.2679 29.392 25.7317C29.6943 24.6741 30.0468 22.9363 30.5 22.4578Z" fill="#F0EFEF"/>
<path d="M24.2798 18.4033C24.2798 18.4033 24.9598 18.4284 25.5643 18.63C26.1435 18.8314 26.1435 18.9572 26.3702 19.2092C26.5968 19.4612 27.1508 19.8388 27.0502 20.2165C26.9997 20.418 26.8739 20.4684 26.6976 20.6447C26.622 20.7202 26.0679 21.3246 25.942 21.4001C25.8664 21.4504 25.7657 21.5261 25.6901 21.5764L25.3124 21.8283C25.0606 21.9543 24.8843 22.0298 24.6073 22.0046C24.6073 22.0046 23.9777 21.9794 23.5747 21.5513C23.5747 21.5513 23.5243 21.3498 23.6251 21.2491C23.6251 21.2491 23.0962 20.7958 22.9451 20.4936C22.7939 20.1915 22.7939 19.7634 22.8948 19.5367C22.9451 19.3099 23.9272 18.6803 24.2798 18.4033ZM24.9095 42.9072L24.8339 43.5369C24.8339 43.5369 24.6073 43.8139 22.92 43.7888C21.2074 43.7635 20.7542 43.2347 20.6031 42.9577L20.5024 42.3029C20.5024 42.3029 20.8298 41.8244 20.9054 41.8244C21.4594 41.8747 23.3483 42.6303 24.6579 42.8317C24.7835 42.8317 24.8086 42.882 24.9095 42.9072ZM28.5611 41.6228C28.5611 41.8998 28.5358 41.8998 28.5358 42.1769C28.838 42.4035 29.5937 42.5295 31.029 42.5041C33.1193 42.4538 35.0585 43.1338 37.4257 42.7308L37.4509 42.2775L37.2243 42.2524L28.838 41.5724L28.5611 41.6228Z" fill="#010101"/>
<path d="M30.3993 42.5043H31.0289C32.3889 42.454 33.6733 42.7561 35.0583 42.8317C35.7887 42.8065 36.6953 42.6301 36.6198 42.1013L29.4676 41.4969C29.0394 41.9753 29.3667 42.3783 30.3993 42.5043ZM22.1894 31.9019C22.416 32.053 23.9522 32.9596 26.4454 32.8336C26.395 33.3121 26.4202 34.244 25.3121 35.8809C24.7581 36.6868 24.2795 38.0971 24.1789 39.8852C24.2041 40.2882 24.4307 40.6406 24.1285 41.1696C24.2292 41.4969 24.6321 42.1517 24.8337 42.5546C25.0351 42.9577 25.1358 43.4109 23.801 43.4362C22.4411 43.4613 20.2501 43.3102 20.5524 42.2525C20.7036 41.6985 21.1316 41.1193 21.1821 40.8925C21.2324 40.6659 21.2324 39.986 21.6604 39.5326C22.0383 38.2734 21.9123 37.0646 21.8369 35.9313C21.7109 34.7476 21.6857 32.8589 22.1894 31.9019ZM24.5315 11.377C26.3196 8.98441 24.8084 7.07058 21.9376 7.64971C20.7791 7.87635 19.6207 8.68236 19.5451 10.1429C19.1674 10.1932 18.3111 10.2436 17.883 11.805C17.5557 13.0138 17.3794 13.2405 16.8 13.8448C16.4223 14.273 16.8252 15.1544 17.1022 15.7841C18.0341 17.9499 20.905 18.1513 22.8442 19.7883C23.499 19.612 24.1789 18.8818 24.3804 18.4033C22.7434 16.464 23.0959 15.7086 22.4411 14.7013C23.1463 14.4493 24.7581 13.4672 24.5315 11.377Z" fill="#010101"/>
<path d="M24.1788 11.2259C24.2794 11.0747 24.4557 10.7474 24.5314 10.6214C24.5566 10.5962 24.8336 11.0747 24.8588 11.0496C25.5387 9.94138 25.715 8.3296 24.9342 8.17852C24.7579 8.15329 24.4306 8.07787 24.1535 7.97698C23.6499 7.80067 23.1967 7.80067 22.3907 7.95188C21.2826 8.15329 20.1745 8.95918 20.1745 10.1177C20.1745 10.1932 20.9551 10.4199 21.1818 11.3517C20.804 10.8228 20.1492 10.2436 19.3685 10.7473C18.5374 11.2761 18.9656 12.4849 17.8575 13.7441C17.4797 14.1722 17.5301 14.6759 17.9329 15.6832C18.5877 17.2699 21.6854 18.1261 23.3727 19.6371C23.7757 19.4608 24.0526 19.0579 24.2542 18.7557C23.1209 17.5721 22.6675 16.4639 22.3402 15.658C21.9373 14.7263 21.4839 14.1974 20.6025 13.4921C21.0558 13.6684 21.4085 13.8447 21.6098 13.9958C21.8364 14.1469 22.1638 14.1721 22.4661 14.0713C23.5492 13.6939 24.1284 12.1827 24.1788 11.2259Z" fill="#F0EFEF"/>
<path d="M35.1339 11.6289C35.0584 12.5859 34.3532 12.1074 33.9755 11.9311C33.22 11.6037 32.4644 11.377 31.583 11.377C30.7015 11.377 29.5682 11.4526 28.5862 11.7044C27.2262 12.0821 26.8232 12.057 26.2188 11.7547C25.6145 11.4273 24.5569 10.6215 24.5569 10.6215C24.5569 10.6215 24.5316 10.8733 24.7835 11.2007C25.1108 11.6037 25.8412 12.1074 26.8233 12.4346C27.3018 12.5859 27.6796 12.485 28.1078 12.3843C30.3492 11.8303 32.7164 11.7295 34.7059 12.9384C34.8066 12.9887 35.1593 12.8376 35.3103 12.611C35.5116 12.2837 35.1339 11.6289 35.1339 11.6289Z" fill="#010101"/>
<path d="M23.6753 21.2239C23.8767 21.3499 24.1286 21.4254 24.4055 21.652C24.4055 21.652 24.1789 21.652 24.0782 21.5514C23.9522 21.4759 23.7004 21.2492 23.6753 21.2239Z" fill="#0A1825"/>
<path d="M30.9535 1.25311C30.8779 1.02648 30.3238 0.623413 29.0395 0.623413C27.6544 0.623413 27.2514 1.05158 27.2263 1.27821C27.2263 1.35376 27.1256 2.15977 27.1003 2.48704C27.1003 2.48704 27.1003 2.88999 27.1254 3.49434C27.1507 3.89728 27.2514 4.12392 27.3018 4.65285C27.3521 5.20676 27.5033 5.55938 27.7802 6.01277C27.9062 6.08819 28.0069 6.16386 28.1329 6.18908C28.6366 6.28972 29.518 6.31494 29.9965 6.18908C30.2734 6.11353 30.6261 5.63505 30.7016 5.20688C30.8023 4.67807 30.903 4.30023 30.9282 3.97295C30.9786 3.64568 31.0038 2.91521 31.0289 2.71368C31.1046 2.15977 30.9786 1.30343 30.9535 1.25311Z" fill="#F0EFEF"/>
<path d="M28.309 32.3804C28.309 32.3804 29.6438 32.9596 32.9429 32.4559C32.9429 32.4559 32.0111 37.1402 32.4393 39.4821C32.4393 39.4821 32.8674 40.0866 36.0406 41.245C36.0406 41.245 37.4508 41.5976 37.4005 42.3029C37.4005 42.3029 37.4508 42.454 35.7384 42.4035C34.026 42.3531 32.4141 42.0509 31.2808 42.0509C30.1475 42.0509 28.9387 42.1012 28.7373 41.7739C28.5106 41.4718 28.7876 40.691 29.115 40.2376C29.4677 39.7592 29.3669 39.4065 29.3418 38.5504C29.266 36.309 27.5534 33.9921 28.309 32.3804Z" fill="#010101"/>
<path d="M28.032 32.8085C27.8557 33.0604 28.0571 34.0172 28.309 34.9491C28.5608 35.8808 29.115 36.435 29.2408 37.9711C29.3667 39.4821 29.3919 39.6836 28.9638 40.5649C28.5356 41.4462 28.4097 42.2523 29.8955 42.2775C31.3813 42.3027 32.1873 42.2523 33.6983 42.479C35.2095 42.7057 35.7383 42.7812 36.5694 42.6553C37.4005 42.5295 37.5767 42.2523 37.2242 42.0005C36.8716 41.7487 35.4109 41.4717 34.7813 40.9679C34.1768 40.5146 32.4644 39.7591 32.4393 39.5576C32.3638 38.8776 32.3385 36.4096 32.4644 35.6038C32.5904 34.7977 32.7666 33.6394 32.817 33.3372C32.8675 33.035 33.1192 32.7327 32.691 32.8335C32.263 32.9341 30.6512 33.1609 29.4424 33.0853C28.2335 33.0099 28.1077 32.7328 28.032 32.8085Z" fill="#8AC640"/>
<path opacity="0.3" d="M28.8884 40.5903C29.3165 40.7918 29.9462 40.943 30.4247 40.943C30.4247 40.943 30.2482 41.7741 30.5253 42.2777C30.8023 42.7814 28.5106 42.4792 28.5106 42.4792L28.41 40.6911L28.8884 40.5903ZM35.5622 42.7562C35.9651 42.6302 36.2422 42.1769 35.9148 41.7489C35.5622 41.3207 35.26 41.2451 35.7133 41.22C36.1667 41.1948 37.8288 42.2021 37.8288 42.2021L36.9724 42.9828L35.5622 42.7562ZM27.9566 33.7906C28.5358 33.9922 29.4173 34.0425 30.1728 34.0173C30.9283 33.9922 32.0616 33.8913 32.792 33.6395C33.5222 33.3877 33.2201 33.9165 33.2201 33.9165L32.8171 34.2943C32.8171 34.2943 31.8601 34.6721 30.2988 34.647C28.4604 34.6217 27.9062 34.4203 27.9062 34.4203L27.9566 33.7906ZM28.0069 35.0499C28.5863 35.2514 29.4676 35.3018 30.2231 35.2765C30.9786 35.2514 31.986 35.2514 32.7164 34.9744C33.0185 34.8737 32.8423 35.3018 32.8423 35.3018L32.7164 35.5284C32.7164 35.5284 31.7342 35.881 30.1979 35.8557C28.3595 35.8306 28.0321 35.6794 28.0321 35.6794L28.0069 35.0499Z" fill="#010101"/>
<path d="M26.3447 17.396C26.3447 17.5723 28.3091 18.5544 29.392 18.7559C30.4749 18.9573 32.7415 18.7559 33.094 18.6804L33.0436 19.033C33.0436 19.033 30.3489 19.4359 28.2839 18.8819C26.2187 18.3279 26.4455 18.2019 26.4455 18.2019L26.3447 17.396Z" fill="#010101"/>
<path d="M22.1389 38.8778C22.4411 39.029 23.5241 39.306 24.2292 39.1549C24.3298 39.1296 24.2292 37.4171 24.5063 36.6364C24.9092 35.5535 25.564 34.672 25.8661 32.7582C24.8083 32.6574 23.5996 32.3804 22.9699 32.1788C22.1642 34.6469 22.4412 36.7623 22.1389 38.8778ZM23.8264 40.4645C24.0027 40.5148 24.1286 40.7162 24.179 40.5905C24.2796 40.3637 24.0027 39.9357 23.9775 39.6335V39.6083C23.7508 39.4068 22.2146 39.3816 22.3154 39.4823C22.1391 39.8097 21.8621 39.7593 21.7615 40.4141C21.7111 40.7414 22.1141 40.4645 22.4917 40.4392C21.8118 40.8925 21.0311 41.4719 20.9051 41.9755C20.754 42.6806 21.0059 42.8821 21.7615 43.26C22.4163 43.4111 23.1969 43.4363 23.8013 43.4111C24.4813 43.2851 24.6073 42.9578 24.4058 42.5044C24.1033 41.8244 23.9019 40.9429 23.8264 40.4645Z" fill="#F0EFEF"/>
<path d="M24.1033 7.75049C24.9344 8.22898 26.0929 8.10311 26.5209 8.07789C26.6217 8.07789 27.6291 7.90158 27.6794 7.92668C27.7801 7.9519 27.7801 8.02744 27.7801 8.02744C27.7801 8.02744 27.4024 8.22885 26.5461 8.27917C25.7403 8.3295 24.7833 8.27917 24.2545 8.02744C23.6248 7.75049 24.1033 7.75049 24.1033 7.75049ZM32.6658 8.22898C32.8169 8.32962 33.7991 8.70746 34.2273 9.16073C34.605 9.5638 34.4036 9.53857 34.3279 9.43781C34.2273 9.31182 33.4465 8.78301 33.1443 8.65714C32.8422 8.53128 32.4643 8.30452 32.4643 8.2542C32.4643 8.20388 32.6658 8.22898 32.6658 8.22898Z" fill="#010101"/>
<path d="M23.9773 18.6802C24.7077 18.6299 25.4632 18.8062 25.9417 19.3098C26.1936 19.5617 26.5965 19.8386 26.5462 20.0905C26.5462 20.166 26.395 20.3676 26.2693 20.5187C26.1937 20.6193 25.9671 20.8459 25.8914 20.9216C25.7908 20.9971 25.4381 21.2742 25.3626 21.3245C25.2871 21.375 25.1863 21.501 25.1107 21.5261C24.859 21.6521 24.5819 21.5513 24.3301 21.4254C24.0783 21.2994 24.3805 21.2742 24.1034 21.0728C23.4235 20.5943 23.0457 20.2668 23.3228 19.335C23.3479 19.1587 23.6248 18.9572 23.9773 18.6802Z" fill="#F0EFEF"/>
<path opacity="0.4" d="M17.5557 12.9132C15.2891 13.8198 9.52188 16.6909 7.88501 17.5723C9.24493 18.4285 9.87451 20.4936 10.076 22.5838C10.1011 22.7854 10.1264 22.9617 10.1516 23.1631C10.1767 23.3394 10.2019 23.4652 10.227 23.5409C10.227 23.5661 10.227 23.6165 10.2522 23.6416C11.7381 19.587 17.0518 15.3057 17.2534 14.9783C17.354 14.8272 17.1274 14.1724 17.48 13.543C17.9334 12.7369 18.8149 12.3842 17.5557 12.9132ZM22.945 31.9271C24.1034 29.6102 24.1286 27.3939 24.1034 24.7999C24.1034 23.717 24.8841 22.1807 24.4812 22.6089C22.9701 24.2961 19.1674 27.4695 16.4224 27.6457C20.2755 27.5198 21.7865 29.459 22.945 31.9271Z" fill="#010101"/>
<path d="M5.6687 19.7128C7.10416 18.6803 14.5335 14.7265 16.3215 14.1724C18.1095 13.5931 17.5555 12.9131 17.5555 12.9131C17.5555 12.9131 10.3025 16.0359 5.97088 18.7306" fill="#010101"/>
<path opacity="0.4" d="M26.8232 12.4348C26.244 12.2081 25.7907 12.8882 25.9418 13.543C26.093 14.1978 27.4529 14.928 27.3773 17.3205C27.3269 19.2849 26.8988 20.0907 26.8988 20.0907L25.9418 18.882C25.9418 18.882 25.7907 16.162 25.4633 15.7591C25.136 15.3562 24.1034 14.6258 23.7005 14.2481C23.2975 13.8702 24.1537 13.3667 24.1034 12.6614C24.0531 11.9815 24.5316 10.6216 24.5316 10.6216L26.8232 12.4348ZM30.3239 23.163C30.2735 25.0518 30.7017 27.8473 30.8779 29.1821C31.0542 30.5168 31.2808 30.6176 30.8779 31.222C30.475 31.8013 29.9461 32.7583 29.9461 32.7583L28.2084 32.6071C28.2084 32.6071 29.5935 30.8442 29.6689 30.5168C29.7445 30.1895 28.9638 27.6963 28.9638 27.6963L30.3239 23.163ZM26.9745 5.53442C27.3271 6.31496 27.7551 6.66758 28.435 6.89434C28.838 7.04543 30.4245 7.24696 31.0542 6.54172C31.3312 6.21432 31.1549 5.33289 31.1549 5.33289L29.7194 6.49127L27.7802 6.13877L27.5536 5.55952L26.9745 5.53442Z" fill="#010101"/>
<path d="M26.8987 7.34753C27.7298 7.70016 29.3416 8.07788 29.7949 8.17864C30.2481 8.27941 30.9785 7.82602 31.3311 7.59939C31.9608 7.19645 32.7666 7.52385 33.1444 7.95201C33.3961 8.22897 33.497 8.40528 33.497 8.48082C33.497 8.58146 33.1948 8.48082 33.1948 8.48082C33.0185 8.40528 32.817 8.38018 32.666 8.27929C32.4645 8.17864 32.263 8.02756 31.9609 8.05265C30.7016 8.20387 30.4498 8.63191 29.3669 8.38005C28.2841 8.1282 28.007 7.90157 26.8486 7.97699" fill="#8AC640"/>
<path d="M22.9952 30.8693C22.9449 30.819 23.0455 30.7686 22.9952 30.7686C22.668 30.7686 22.2146 30.5168 21.9626 30.1642C20.8797 28.6028 19.2931 27.5703 16.4221 27.6459C12.1156 27.7465 10.4031 25.9838 10.0758 22.6091C9.8995 20.7707 9.39579 18.9826 8.36327 17.9752L7.75879 18.3531C8.91717 19.3604 9.29502 20.9974 9.54688 23.2387C9.94982 26.6133 12.6697 28.1748 15.8429 28.2251C19.142 28.2754 20.3256 28.9555 21.5595 30.6177C21.9625 31.1465 22.4158 31.3228 22.7683 31.3983L22.9952 30.8693Z" fill="#010101"/>
<path opacity="0.4" d="M34.6807 14.676C34.7563 15.0537 34.9577 15.7841 35.3606 16.1366C35.5371 16.3129 35.5622 16.3632 35.4111 16.3632C35.2599 16.3632 34.1518 16.3129 34.1518 16.3129L33.8496 15.7841L34.6807 14.676Z" fill="#010101"/>
</svg>
