<svg width="39" height="44" viewBox="0 0 39 44" fill="none" xmlns="http://www.w3.org/2000/svg">
	<path d="M38.5 0H0L3.5 39.5L19 44L35 39.5L38.5 0Z" fill="#EC442B" />
	<path d="M32 37L35 3H19V41L32 37Z" fill="#FC5930" />
	<path d="M31.5 8H19V13H31L31.5 8Z" fill="white" />
	<path d="M30.5 18H19V23H25L24.5 29L19 30.5V35.5L29 33L30.5 18Z" fill="white" />
	<path d="M7 8H19V13H12.5L13 18H19V23H8.5L7 8Z" fill="#EBEBEB" />
	<path d="M14 29L19 30.5V35.5L9 32.5L8.5 25.5H13.5L14 29Z" fill="#EBEBEB" />
</svg>
