<svg width="44" height="44" viewBox="0 0 44 44" fill="none" xmlns="http://www.w3.org/2000/svg">
<path d="M0 0H44V44H0V0Z" fill="#F7DF1E"/>
<path d="M11.5693 36.7695L14.9363 34.7318C15.586 35.8835 16.1769 36.858 17.5943 36.858C18.953 36.858 19.8098 36.3266 19.8098 34.2593V20.2002H23.9446V34.3177C23.9446 38.6003 21.4342 40.5497 17.7715 40.5497C14.4638 40.5497 12.5438 38.8367 11.5691 36.7692L11.5693 36.7695ZM26.1905 36.3264L29.5572 34.3772C30.4435 35.8245 31.5955 36.8878 33.6332 36.8878C35.3466 36.8878 36.4391 36.0311 36.4391 34.8497C36.4391 33.432 35.3167 32.9298 33.4264 32.1031L32.393 31.6597C29.4097 30.39 27.4309 28.795 27.4309 25.428C27.4309 22.3267 29.7937 19.9637 33.4857 19.9637C36.1144 19.9637 38.0047 20.8795 39.3632 23.2718L36.1436 25.3395C35.4346 24.0695 34.667 23.5674 33.4856 23.5674C32.2745 23.5674 31.5066 24.3354 31.5066 25.3395C31.5066 26.5799 32.2745 27.0823 34.0466 27.8502L35.0802 28.2932C38.5951 29.7996 40.5739 31.3353 40.5739 34.7907C40.5739 38.5125 37.6499 40.5502 33.7217 40.5502C29.8822 40.5502 27.4012 38.7191 26.1903 36.3266" fill="black"/>
</svg>
