<svg width="26" height="44" viewBox="0 0 26 44" fill="none" xmlns="http://www.w3.org/2000/svg">
<path d="M13.3222 0.120117L11.8217 2.32545C11.4844 2.73242 11.1189 3.09265 10.6885 3.42812C9.4265 4.40337 8.25017 5.44425 7.16755 6.54364C4.62524 9.15594 2.91045 12.057 1.68585 15.1945C0.951447 17.1111 0.55262 19.0772 0.522752 21.0653C0.399765 27.009 3.00357 32.1126 8.25335 36.3542C9.10729 37.0268 10.0298 37.6439 11.0118 38.1993C11.5318 38.1993 11.7778 37.8872 11.9922 37.5998C12.3825 37.067 12.6423 36.4818 12.7582 35.8743C12.9427 35.1553 13.0639 34.4362 13.0042 33.6937V33.3583C13.0463 33.2868 13.5049 0.28923 13.3222 0.120117Z" fill="#599636"/>
<path d="M13.322 0.0473006C13.3835 -0.0489422 13.445 0.0239274 13.5065 0.0706739C13.4767 0.551888 13.691 0.980856 14.0266 1.39058C14.3955 1.79755 14.884 2.10965 15.3742 2.44512C18.0974 4.29024 20.2409 6.51894 21.9575 9.01163C24.2415 12.3664 25.4186 15.9617 25.7525 19.7468C25.9053 21.1121 25.2008 25.9298 24.6509 27.3198C23.1504 31.01 20.4553 34.1021 16.9642 36.7859C16.1068 37.4321 15.1897 38.0316 14.2409 38.6077C13.9651 38.6077 13.9352 38.4152 13.872 38.2722C13.751 37.9662 13.6588 37.6538 13.5961 37.3373L12.9812 33.7433L13.322 0.0473006Z" fill="#6CAC48"/>
<path d="M11.8216 39.6596C11.7601 39.1096 11.4228 38.6531 11.0556 38.198C11.4246 38.0784 11.6987 37.8406 11.913 37.5752C12.0978 37.324 12.2508 37.0592 12.3698 36.7846C12.7985 35.7782 12.8899 34.7223 13.0129 33.6939V33.071C13.1657 33.1673 13.1973 33.9812 13.1973 34.1022C13.2867 35.1892 13.4711 36.2701 13.749 37.3374C13.8404 37.7691 13.9019 38.1994 14.241 38.583C14.241 38.6311 14.241 38.6793 14.2111 38.7508C13.6594 40.0212 13.5083 41.3149 13.4152 42.6335V43.1147C13.4152 43.6894 13.4451 43.5684 12.8354 43.7609C12.5894 43.8324 12.3153 43.8571 12.0694 44.0001C11.8849 44.0001 11.855 43.8805 11.855 43.7843L11.9464 42.9937V40.7884C11.9763 40.4034 11.8849 40.0212 11.8234 39.6609L11.8216 39.6596Z" fill="#C2BFBF"/>
</svg>
