<svg width="55" height="55" viewBox="0 0 55 55" fill="none" xmlns="http://www.w3.org/2000/svg">
	<path
		d="M0.863647 6.77274C0.863647 3.50797 3.50797 0.863647 6.77274 0.863647H48.1364C51.4011 0.863647 54.0455 3.50797 54.0455 6.77274V48.1364C54.0455 51.4011 51.4011 54.0455 48.1364 54.0455H6.77274C3.50797 54.0455 0.863647 51.4011 0.863647 48.1364V6.77274Z"
		fill="#03A9F4"
	/>

	<path
		d="M21.569 20.3282H18.6145V26.877H21.5277C22.3358 26.877 22.9592 26.611 23.4038 26.0807C23.847 25.5563 24.0671 24.7822 24.0671 23.7732C24.0671 22.7229 23.8426 21.8912 23.3876 21.2692C23.1858 20.9744 22.9141 20.7341 22.5967 20.5699C22.2794 20.4057 21.9263 20.3226 21.569 20.3282V20.3282Z"
		fill="#020F16"
	/>

	<path
		d="M5.29541 5.29547V49.6137H49.6136V5.29547H5.29541ZM26.5135 28.6216C25.2962 29.8152 23.6062 30.4091 21.442 30.4091H18.6145V37.7955H14.3733V16.7901H21.5277C23.6062 16.7901 25.2622 17.4372 26.4972 18.7239C27.7308 20.0091 28.3483 21.6843 28.3483 23.7437C28.3483 25.8045 27.7367 27.425 26.5135 28.6201V28.6216ZM40.2817 36.8146C39.2328 37.6625 37.853 38.085 36.1571 38.085C35.0078 38.085 33.9988 37.859 33.1272 37.4143C32.2813 36.9931 31.5682 36.3464 31.0664 35.5456C30.5773 34.7723 30.319 33.8754 30.3219 32.9604H34.2071C34.2293 33.6754 34.3903 34.2057 34.702 34.5632C35.0137 34.9222 35.5278 35.095 36.2384 35.095C37.333 35.095 37.8826 34.6046 37.8826 33.6118C37.8826 33.2662 37.7201 32.9426 37.3862 32.6546C37.0509 32.3591 36.3181 31.9602 35.1762 31.4654C33.4906 30.7784 32.3369 30.0738 31.7017 29.341C31.0723 28.6083 30.7562 27.7027 30.7562 26.6125C30.7562 25.2505 31.2511 24.1189 32.2379 23.2296C33.2188 22.3432 34.5292 21.8971 36.1512 21.8971C37.8648 21.8971 39.2328 22.3417 40.2654 23.2251C41.2921 24.1071 41.8062 25.2963 41.8062 26.7854H37.726C37.726 25.5149 37.1942 24.8797 36.1394 24.8797C35.7065 24.8797 35.349 25.02 35.0713 25.2844C34.7892 25.5563 34.6503 25.9315 34.6503 26.4101C34.6503 26.7558 34.8069 27.0616 35.1127 27.3275C35.4229 27.5934 36.1453 27.9687 37.2931 28.4591C38.9551 29.0766 40.1325 29.7635 40.8194 30.5184C41.5122 31.2748 41.8535 32.2498 41.8535 33.4508C41.8535 34.8468 41.3276 35.9666 40.2831 36.8146H40.2817Z"
		fill="#020F16"
	/>
</svg>
