<svg width="44" height="40" viewBox="0 0 44 40" fill="none" xmlns="http://www.w3.org/2000/svg">
<path d="M21.5186 23.9188C23.6829 23.9188 25.4374 22.1643 25.4374 20C25.4374 17.8358 23.6829 16.0813 21.5186 16.0813C19.3543 16.0813 17.5999 17.8358 17.5999 20C17.5999 22.1643 19.3543 23.9188 21.5186 23.9188Z" fill="#61DAFB"/>
<path d="M36.4031 13.5375C35.6469 13.2625 34.8563 12.9876 34.0312 12.7469C34.2375 11.9219 34.4094 11.0969 34.5469 10.3063C35.2687 5.7688 34.4781 2.57192 32.2781 1.33442C31.625 0.956299 30.9031 0.784424 30.0781 0.784424C27.6719 0.784424 24.6125 2.57192 21.5187 5.56255C18.425 2.57192 15.3656 0.784424 12.9594 0.784424C12.1344 0.784424 11.4125 0.956299 10.7594 1.33442C8.55938 2.6063 7.76875 5.80317 8.49063 10.3063C8.62813 11.0969 8.8 11.9219 9.00625 12.7469C8.18125 12.9876 7.39063 13.2282 6.63438 13.5375C2.3375 15.1875 0 17.4563 0 20C0 22.5438 2.37188 24.8126 6.63438 26.4626C7.39063 26.7376 8.18125 27.0125 9.00625 27.2532C8.8 28.0782 8.62813 28.9032 8.49063 29.6938C7.76875 34.2313 8.55938 37.4282 10.7594 38.6657C11.4125 39.0438 12.1344 39.2157 12.9594 39.2157C15.4 39.2157 18.4594 37.4282 21.5187 34.4375C24.6125 37.4282 27.6719 39.2157 30.0781 39.2157C30.9031 39.2157 31.625 39.0438 32.2781 38.6657C34.4781 37.3938 35.2687 34.1969 34.5469 29.6938C34.4094 28.9032 34.2375 28.0782 34.0312 27.2532C34.8563 27.0125 35.6469 26.7719 36.4031 26.4626C40.7 24.8126 43.0375 22.5438 43.0375 20C43.0375 17.4563 40.7 15.1875 36.4031 13.5375ZM31.3156 3.05317C32.725 3.87817 33.2062 6.42192 32.6219 10.0313C32.5187 10.7532 32.3469 11.5094 32.1406 12.3C30.3531 11.8875 28.4625 11.6125 26.4688 11.4407C25.3 9.79067 24.0969 8.31255 22.8937 6.97192C25.4375 4.46255 28.0156 2.7438 30.1125 2.7438C30.5594 2.7438 30.9719 2.84692 31.3156 3.05317ZM27.4656 23.4375C26.8469 24.5375 26.125 25.6375 25.3687 26.7375C24.0969 26.8407 22.825 26.875 21.5187 26.875C20.1781 26.875 18.9062 26.8407 17.6687 26.7375C16.9125 25.6375 16.225 24.5375 15.6062 23.4375C14.9531 22.3032 14.3344 21.1344 13.7844 20C14.3344 18.8657 14.9531 17.6969 15.6062 16.5625C16.225 15.4625 16.9469 14.3626 17.7031 13.2626C18.975 13.1594 20.2469 13.125 21.5531 13.125C22.8937 13.125 24.1656 13.1594 25.4031 13.2626C26.1594 14.3626 26.8469 15.4625 27.4656 16.5625C28.1188 17.6969 28.7375 18.8657 29.2875 20C28.7031 21.1344 28.1188 22.2688 27.4656 23.4375ZM30.3187 22.3032C30.8344 23.5063 31.2469 24.675 31.625 25.8438C30.4562 26.1188 29.2187 26.3251 27.9125 26.4969C28.325 25.8438 28.7719 25.1563 29.15 24.4344C29.5625 23.7126 29.9406 22.9907 30.3187 22.3032ZM21.5187 31.6188C20.6937 30.7251 19.9031 29.7626 19.1469 28.7657C19.9375 28.8 20.7281 28.8344 21.5187 28.8344C22.3094 28.8344 23.1 28.8 23.8906 28.7657C23.1344 29.7626 22.3438 30.7251 21.5187 31.6188ZM15.125 26.4626C13.8188 26.2907 12.5812 26.0844 11.4125 25.8094C11.7906 24.6751 12.2031 23.4719 12.7188 22.2688C13.0969 22.9563 13.475 23.6782 13.8875 24.3657C14.3 25.1219 14.7125 25.7751 15.125 26.4626ZM12.7188 17.6969C12.2031 16.4938 11.7906 15.325 11.4125 14.1563C12.5812 13.8813 13.8188 13.675 15.125 13.5032C14.7125 14.1563 14.2656 14.8438 13.8875 15.5657C13.475 16.2875 13.0969 17.0094 12.7188 17.6969ZM21.5187 8.3813C22.3438 9.27505 23.1344 10.2375 23.8906 11.2344C23.1 11.2 22.3094 11.1657 21.5187 11.1657C20.7281 11.1657 19.9375 11.2 19.1469 11.2344C19.9031 10.2375 20.6937 9.27505 21.5187 8.3813ZM29.15 15.6L27.9125 13.5375C29.2187 13.7094 30.4562 13.9157 31.625 14.1907C31.2469 15.325 30.8344 16.5282 30.3187 17.7313C29.9406 17.0094 29.5625 16.2875 29.15 15.6ZM10.4156 10.0313C9.83125 6.42192 10.3125 3.87817 11.7219 3.05317C12.0656 2.84692 12.4781 2.7438 12.925 2.7438C14.9875 2.7438 17.5656 4.42817 20.1437 6.97192C18.9406 8.27817 17.7375 9.79067 16.5687 11.4407C14.575 11.6125 12.6844 11.9219 10.8969 12.3C10.6906 11.5094 10.5531 10.7532 10.4156 10.0313ZM1.925 20C1.925 18.3844 3.88438 16.6657 7.32188 15.3938C8.00938 15.1188 8.76562 14.8782 9.52188 14.6719C10.0719 16.3907 10.7594 18.2125 11.5844 20.0344C10.7594 21.8563 10.0375 23.6438 9.52188 25.3625C4.77813 23.9875 1.925 21.925 1.925 20ZM11.7219 36.9469C10.3125 36.1219 9.83125 33.5782 10.4156 29.9688C10.5188 29.2469 10.6906 28.4907 10.8969 27.7001C12.6844 28.1126 14.575 28.3876 16.5687 28.5594C17.7375 30.2094 18.9406 31.6875 20.1437 33.0282C17.6 35.5376 15.0219 37.2563 12.925 37.2563C12.4781 37.2563 12.0656 37.1532 11.7219 36.9469ZM32.6219 29.9688C33.2062 33.5782 32.725 36.1219 31.3156 36.9469C30.9719 37.1532 30.5594 37.2563 30.1125 37.2563C28.05 37.2563 25.4719 35.5719 22.8937 33.0282C24.0969 31.7219 25.3 30.2094 26.4688 28.5594C28.4625 28.3876 30.3531 28.0782 32.1406 27.7001C32.3469 28.4907 32.4844 29.2469 32.6219 29.9688ZM35.7156 24.6063C35.0281 24.8813 34.2719 25.1219 33.5156 25.3282C32.9656 23.6094 32.2781 21.7875 31.4531 19.9657C32.2781 18.1438 33 16.3563 33.5156 14.6376C38.2594 16.0126 41.1125 18.0751 41.1125 20C41.1125 21.6157 39.1188 23.3344 35.7156 24.6063Z" fill="#61DAFB"/>
</svg>
