<svg width="59" height="44" viewBox="0 0 59 44" fill="none" xmlns="http://www.w3.org/2000/svg">
<path d="M50.4985 25.266C48.4474 25.2776 46.6714 25.7705 45.1818 26.5045C44.6318 25.4152 44.0818 24.4634 43.9903 23.7527C43.8872 22.9271 43.7611 22.4225 43.8872 21.4366C44.0131 20.4504 44.586 19.0516 44.586 18.9369C44.5744 18.8337 44.4598 18.3292 43.2798 18.3177C42.0997 18.3063 41.0798 18.5471 40.9652 18.8566C40.8506 19.1662 40.6214 19.8771 40.4725 20.6109C40.2662 21.6887 38.1121 25.5068 36.886 27.5133C36.485 26.7337 36.1412 26.0457 36.0724 25.4952C35.9694 24.6698 35.8432 24.1652 35.9694 23.1793C36.0954 22.1931 36.6683 20.7944 36.6683 20.6797C36.6569 20.5765 36.5423 20.072 35.3622 20.0605C34.1819 20.0491 33.1622 20.2899 33.0476 20.5994C32.933 20.909 32.807 21.6428 32.5549 22.3537C32.3142 23.0646 29.4496 29.4396 28.7048 31.1021C28.3267 31.9506 27.9945 32.6271 27.7538 33.0857C27.5132 33.5444 27.7423 33.1201 27.7194 33.166C27.5131 33.5558 27.3986 33.7737 27.3986 33.7737V33.7853C27.2382 34.0719 27.0663 34.347 26.986 34.347C26.9287 34.347 26.8141 33.5788 27.0089 32.524C27.4328 30.311 28.4641 26.8599 28.4527 26.7338C28.4527 26.6764 28.6474 26.0686 27.788 25.7592C26.9516 25.4496 26.6538 25.9656 26.5849 25.9656C26.5162 25.9656 26.4589 26.149 26.4589 26.149C26.4589 26.149 27.387 22.2622 24.6828 22.2622C22.987 22.2622 20.6495 24.1082 19.4922 25.7937C18.7589 26.195 17.2006 27.0434 15.5506 27.9493C14.9204 28.2932 14.2673 28.6602 13.6485 28.9927L13.5226 28.8548C10.2455 25.3578 4.18407 22.8811 4.43615 18.1802C4.52782 16.4717 5.12365 11.9657 16.0779 6.50794C25.0497 2.03626 32.2341 3.26311 33.4829 5.99197C35.259 9.89036 29.6444 17.1368 20.3175 18.1802C16.7654 18.5815 14.8976 17.2056 14.4279 16.6896C13.9352 16.1507 13.8664 16.1278 13.6831 16.231C13.3852 16.3915 13.5685 16.873 13.6831 17.1597C13.9581 17.882 15.1039 19.1662 17.0518 19.8083C18.759 20.3701 22.9299 20.6797 27.9716 18.7305C33.6205 16.5405 38.032 10.4636 36.7372 5.38428C35.4195 0.213195 26.8487 -1.48375 18.7477 1.39418C13.9236 3.11405 8.69864 5.79705 4.94032 9.31707C0.471585 13.4906 -0.238829 17.1368 0.0590864 18.6503C1.10191 24.0507 8.53822 27.5707 11.5174 30.1734C11.3684 30.2536 11.2309 30.3338 11.1049 30.4027C9.6153 31.1364 3.94345 34.1062 2.52262 37.2477C0.918458 40.8021 2.7747 43.3591 4.0122 43.7031C7.83927 44.7694 11.758 42.8546 13.8778 39.7015C15.986 36.5484 15.734 32.4551 14.7601 30.5862L14.7256 30.5174L15.8943 29.8294C16.6507 29.3823 17.3955 28.9695 18.0485 28.6139C17.6819 29.6115 17.4183 30.7925 17.2809 32.5123C17.1205 34.5304 17.9455 37.1445 19.034 38.1765C19.5153 38.6235 20.0882 38.6351 20.4434 38.6351C21.7038 38.6351 22.2767 37.5916 22.9069 36.3419C23.6861 34.817 24.3736 33.0512 24.3736 33.0512C24.3736 33.0512 23.5142 37.8325 25.8632 37.8325C26.7225 37.8325 27.5819 36.7203 27.9715 36.147V36.1585C27.9715 36.1585 27.9944 36.1241 28.0402 36.0438C28.0883 35.9727 28.1342 35.9001 28.1777 35.8261V35.8031C28.5215 35.2069 29.2892 33.8425 30.435 31.5837C31.913 28.6714 33.334 25.0253 33.334 25.0253C33.334 25.0253 33.4715 25.9196 33.8954 27.3872C34.1474 28.2587 34.6974 29.2103 35.1213 30.139C34.7776 30.6206 34.5713 30.8959 34.5713 30.8959L34.5828 30.9073C34.3079 31.2743 33.9984 31.6642 33.6777 32.0539C32.509 33.4528 31.1111 35.0466 30.9277 35.5053C30.71 36.044 30.7558 36.4453 31.1798 36.7665C31.4892 36.9958 32.0392 37.0416 32.6235 36.9958C33.6777 36.9269 34.411 36.6633 34.7777 36.5027C35.3506 36.2963 36.0037 35.9867 36.6339 35.5281C37.7798 34.6797 38.4787 33.4758 38.41 31.8706C38.3756 30.9877 38.0892 30.1163 37.7339 29.2908C37.8371 29.1417 37.9403 28.9925 38.0433 28.8321C39.8537 26.1834 41.2516 23.2712 41.2516 23.2712C41.2516 23.2712 41.3891 24.1655 41.8131 25.6332C42.0307 26.3785 42.4662 27.1926 42.8558 27.9952C41.16 29.3826 40.0944 30.9878 39.7277 32.0427C39.0516 33.9919 39.5787 34.8748 40.5756 35.0811C41.0224 35.1729 41.6641 34.9665 42.1453 34.7601C42.7411 34.5652 43.463 34.2325 44.1277 33.7396C45.2735 32.8912 46.3735 31.7102 46.3162 30.1164C46.2818 29.3826 46.087 28.6603 45.8235 27.9723C47.2672 27.3761 49.1348 27.0321 51.5068 27.3188C56.6057 27.915 57.6141 31.1025 57.4194 32.4325C57.2246 33.7627 56.159 34.4964 55.8037 34.7257C55.4485 34.9435 55.3339 35.0239 55.3683 35.1843C55.4141 35.4252 55.5745 35.4136 55.8839 35.3679C56.3078 35.299 58.5651 34.2786 58.6568 31.8251C58.7943 28.6715 55.8037 25.2318 50.4985 25.266ZM11.1736 38.532C9.48926 40.378 7.11739 41.0774 6.10906 40.4812C5.02053 39.8506 5.44437 37.1332 7.51843 35.1725C8.77885 33.9801 10.4174 32.8794 11.4945 32.2029C11.7351 32.0538 12.1017 31.8361 12.5372 31.5722C12.6059 31.5265 12.6517 31.5035 12.6517 31.5035C12.732 31.4576 12.8236 31.4003 12.9153 31.3429C13.683 34.1406 12.9497 36.5943 11.1736 38.532ZM23.4913 30.1505C22.9069 31.5837 21.6694 35.2642 20.9246 35.0579C20.2829 34.8859 19.8934 32.0997 20.7985 29.3479C21.2568 27.9604 22.2308 26.3094 22.8037 25.6672C23.7319 24.6353 24.7401 24.2913 24.9923 24.7156C25.2902 25.266 23.858 29.2562 23.4913 30.1505ZM33.6548 35.012C33.4027 35.1382 33.1735 35.2298 33.0704 35.1612C32.9902 35.1153 33.1734 34.9433 33.1734 34.9433C33.1734 34.9433 34.4453 33.5789 34.9495 32.9483C35.2359 32.5815 35.5797 32.1572 35.9463 31.6756V31.8131C35.9464 33.4641 34.3652 34.5648 33.6548 35.012ZM41.4921 33.2233C41.3088 33.0857 41.3318 32.6615 41.9505 31.3315C42.1912 30.804 42.7411 29.9212 43.6921 29.0842C43.8067 29.4281 43.8756 29.7605 43.864 30.0702C43.8527 32.1341 42.386 32.9023 41.4921 33.2233Z" fill="#CF649A"/>
</svg>
