<svg width="56" height="44" viewBox="0 0 56 44" fill="none" xmlns="http://www.w3.org/2000/svg">
<path d="M27.7037 0C20.3161 0 15.6987 4.88898 13.8519 14.6667C16.6222 9.77768 19.8542 7.94435 23.5481 9.16667C25.6556 9.86391 27.162 11.8877 28.8294 14.1276C31.5456 17.7767 34.6891 22 41.5556 22C48.9431 22 53.5606 17.111 55.4074 7.33333C52.637 12.2223 49.405 14.0556 45.7111 12.8333C43.6037 12.1361 42.0973 10.1123 40.4299 7.87245C37.7136 4.22325 34.5701 0 27.7037 0ZM13.8519 22C6.46427 22 1.84684 26.889 0 36.6667C2.77037 31.7777 6.0024 29.9443 9.6963 31.1667C11.8037 31.8639 13.3101 33.8877 14.9775 36.1275C17.6938 39.7767 20.8373 44 27.7037 44C35.0913 44 39.7087 39.111 41.5556 29.3333C38.7852 34.2223 35.5532 36.0556 31.8593 34.8333C29.7518 34.1361 28.2454 32.1123 26.578 29.8724C23.8618 26.2233 20.7183 22 13.8519 22Z" fill="url(#paint0_linear)"/>
<defs>
<linearGradient id="paint0_linear" x1="-1.53922" y1="14.08" x2="52.0521" y2="37.4266" gradientUnits="userSpaceOnUse">
<stop stop-color="#2298BD"/>
<stop offset="1" stop-color="#0ED7B5"/>
</linearGradient>
</defs>
</svg>
