<svg width="44" height="44" viewBox="0 0 44 44" fill="none" xmlns="http://www.w3.org/2000/svg">
<path d="M0 0H44V44H0V0Z" fill="#2976C6"/>
<path d="M26.1904 36.3264L29.5571 34.3772C30.4435 35.8245 31.5954 36.8878 33.6331 36.8878C35.3466 36.8878 36.439 36.0311 36.439 34.8497C36.439 33.432 35.3167 32.9298 33.4264 32.1031L32.3929 31.6597C29.4097 30.39 27.4309 28.795 27.4309 25.428C27.4309 22.3267 29.7936 19.9637 33.4857 19.9637C36.1143 19.9637 38.0046 20.8795 39.3631 23.2718L36.1435 25.3395C35.4346 24.0695 34.667 23.5674 33.4855 23.5674C32.2745 23.5674 31.5065 24.3354 31.5065 25.3395C31.5065 26.5799 32.2745 27.0823 34.0465 27.8502L35.0801 28.2932C38.595 29.7996 40.5738 31.3353 40.5738 34.7907C40.5738 38.5125 37.6499 40.5502 33.7216 40.5502C29.8821 40.5502 27.4013 38.7189 26.1904 36.3264Z" fill="white"/>
<path d="M9 20.5H24V25H19V40.5H14.5V25H9V20.5Z" fill="white"/>
</svg>

